<?xml version="1.0" encoding="UTF-8"?>
<!-- Generator: visioncortex VTracer 0.6.1 -->
<svg version="1.1" xmlns="http://www.w3.org/2000/svg" width="1280" height="848">
    <path d="M0 0 C1.40333654 2.80667308 1.12596988 5.12253203 1.12698364 8.26330566 C1.12854363 8.91288821 1.13010362 9.56247075 1.13171089 10.23173761 C1.13571387 12.41818639 1.13253395 14.60456628 1.12939453 16.79101562 C1.13074888 18.35454855 1.13252901 19.91808116 1.13470459 21.48161316 C1.13927489 25.7356335 1.13749101 29.98962966 1.1343255 34.24365044 C1.13179983 38.6883539 1.13414002 43.13305525 1.13571167 47.57775879 C1.13753276 55.04289116 1.13512865 62.50801366 1.13037109 69.97314453 C1.12492859 78.61300082 1.12669129 87.25283351 1.1321975 95.89268923 C1.13673036 103.30076948 1.13737833 110.70884262 1.13475883 118.11692381 C1.13319701 122.5457927 1.1329997 126.97465049 1.13629532 131.40351868 C1.13917653 135.56653769 1.13719371 139.72952618 1.13140106 143.89254189 C1.13007481 145.42363242 1.13046531 146.95472551 1.13266373 148.48581505 C1.13538051 150.56947658 1.1319876 152.65303918 1.12698364 154.73669434 C1.1264181 156.48881351 1.1264181 156.48881351 1.12584114 158.27632904 C1 161 1 161 0 163 C-7.38728102 163.02526692 -14.77455098 163.0428316 -22.16186523 163.05493164 C-24.67716895 163.05997363 -27.19246972 163.06680703 -29.70776367 163.07543945 C-33.31429775 163.08751094 -36.92079323 163.09322949 -40.52734375 163.09765625 C-42.22575661 163.10539818 -42.22575661 163.10539818 -43.95848083 163.11329651 C-45.51998619 163.11340981 -45.51998619 163.11340981 -47.11303711 163.11352539 C-48.03459091 163.115746 -48.95614471 163.11796661 -49.90562439 163.12025452 C-52 163 -52 163 -53 162 C-53.09558036 160.55786001 -53.12188394 159.11105921 -53.12025452 157.66575623 C-53.12231651 156.26273758 -53.12231651 156.26273758 -53.12442017 154.83137512 C-53.11902725 153.27987007 -53.11902725 153.27987007 -53.11352539 151.69702148 C-53.11367142 150.61422913 -53.11381744 149.53143677 -53.1139679 148.41583252 C-53.11326823 144.81756626 -53.10547333 141.21935103 -53.09765625 137.62109375 C-53.09579226 135.13387582 -53.09436827 132.64665752 -53.09336853 130.15943909 C-53.0899335 124.26978809 -53.08204277 118.3801561 -53.07201904 112.49051291 C-53.05976246 105.12974626 -53.05437791 97.76897736 -53.04882812 90.40820312 C-53.03808815 77.27212602 -53.02120089 64.13606417 -53 51 C-57.8736932 50.41087219 -62.67975126 49.8751257 -67.59570312 49.87060547 C-68.59283325 49.86745331 -69.58996338 49.86430115 -70.61730957 49.86105347 C-72.18346008 49.86408981 -72.18346008 49.86408981 -73.78125 49.8671875 C-74.87594604 49.86623077 -75.97064209 49.86527405 -77.09851074 49.86428833 C-79.39445046 49.86361168 -81.69039215 49.86542981 -83.98632812 49.86962891 C-87.51696993 49.87502594 -91.0474869 49.86964541 -94.578125 49.86328125 C-96.81250028 49.86394131 -99.04687549 49.86522099 -101.28125 49.8671875 C-102.34154419 49.86516327 -103.40183838 49.86313904 -104.4942627 49.86105347 C-105.46617554 49.86420563 -106.43808838 49.86735779 -107.43945312 49.87060547 C-108.72777039 49.87179886 -108.72777039 49.87179886 -110.04211426 49.87301636 C-112.00398424 49.78403118 -112.00398424 49.78403118 -113 51 C-113.09801202 52.53896196 -113.12631844 54.08241675 -113.12698364 55.62449646 C-113.12980347 56.62426514 -113.13262329 57.62403381 -113.13552856 58.65409851 C-113.13350433 59.76009903 -113.1314801 60.86609955 -113.12939453 62.00561523 C-113.13114685 63.16322357 -113.13289917 64.32083191 -113.13470459 65.51351929 C-113.13912631 69.36189244 -113.13618379 73.21022008 -113.1328125 77.05859375 C-113.13348549 79.72038328 -113.13445379 82.3821714 -113.13571167 85.04396057 C-113.13753334 90.63193256 -113.13512739 96.21989134 -113.13037109 101.80786133 C-113.12493113 108.27382098 -113.1266892 114.73974909 -113.1321975 121.20570797 C-113.13673187 126.74966529 -113.1373775 132.2936131 -113.13475883 137.83757168 C-113.1331975 141.15198407 -113.13338924 144.46637833 -113.13629532 147.78079033 C-113.13882332 151.47554559 -113.13497897 155.17023956 -113.12939453 158.86499023 C-113.13141876 159.96896652 -113.13344299 161.07294281 -113.13552856 162.21037292 C-113.13270874 163.21296143 -113.12988892 164.21554993 -113.12698364 165.2485199 C-113.12660662 166.12292441 -113.12622959 166.99732893 -113.12584114 167.89823055 C-113.13466339 170.0581374 -113.13466339 170.0581374 -112 172 C-31.15 172 49.7 172 133 172 C133 170.02 133 168.04 133 166 C132.67 166 132.34 166 132 166 C132 161.05 132 156.1 132 151 C132.66 151 133.32 151 134 151 C133.814375 150.05125 133.62875 149.1025 133.4375 148.125 C133 145 133 145 134 143 C133.34 143 132.68 143 132 143 C132.66 141.35 133.32 139.7 134 138 C132.7934375 138.0309375 132.7934375 138.0309375 131.5625 138.0625 C129 138 129 138 128 137 C125.07372714 136.91538042 122.17128713 136.89572987 119.24511719 136.91821289 C118.32641342 136.92127945 117.40770966 136.92434601 116.46116638 136.92750549 C114.45859671 136.93467946 112.4560341 136.94407913 110.45348358 136.95540047 C107.28475988 136.97272248 104.11608615 136.98306863 100.94732666 136.99131775 C91.93505106 137.0158289 82.92284246 137.05130131 73.91064453 137.09594727 C68.40468035 137.12273255 62.89875551 137.1397756 57.39273834 137.15081596 C55.29237671 137.1570274 53.19202278 137.16703476 51.09169769 137.18089485 C48.1519015 137.20011393 45.2123115 137.20700792 42.27246094 137.21118164 C41.4036882 137.21994324 40.53491547 137.22870483 39.63981628 137.23773193 C35.27453744 137.23065781 31.98566816 136.98397691 28 135 C27.01 134.67 26.02 134.34 25 134 C24.3125 131.9375 24.3125 131.9375 24 130 C23.34 130 22.68 130 22 130 C18.54070837 124.50412801 18.58961446 119.8639872 18.65942383 113.58837891 C18.65898575 112.55362427 18.65854767 111.51886963 18.65809631 110.45275879 C18.6601808 107.04383256 18.68349643 103.63540248 18.70703125 100.2265625 C18.7126284 97.85859445 18.71689793 95.49062292 18.71989441 93.12265015 C18.73133375 86.89848188 18.76079341 80.67452454 18.79400635 74.45043945 C18.82472667 68.09589491 18.83840396 61.74131619 18.85351562 55.38671875 C18.88566373 42.92438664 18.93684932 30.46221088 19 18 C18.34 17.67 17.68 17.34 17 17 C17.66 17 18.32 17 19 17 C18.896875 16.2575 18.79375 15.515 18.6875 14.75 C19 12 19 12 21.375 9.9375 C22.24125 9.298125 23.1075 8.65875 24 8 C25.31165257 5.88339573 25.31165257 5.88339573 26 4 C27.32 4 28.64 4 30 4 C30.99 3.34 31.98 2.68 33 2 C33.99 2 34.98 2 36 2 C36 1.34 36 0.68 36 0 C56.65411639 -0.15424598 77.30826914 -0.30226807 97.96248245 -0.4429636 C107.55346238 -0.50844063 117.14442022 -0.57592294 126.73535156 -0.64819336 C135.09876414 -0.71120891 143.46219374 -0.77039334 151.82566524 -0.82505554 C156.25043343 -0.85410677 160.6751702 -0.88502327 165.09989166 -0.92053413 C169.27273129 -0.9539628 173.44557542 -0.9822317 177.61847687 -1.00670624 C179.14215407 -1.01652265 180.66582095 -1.02815256 182.18946838 -1.04183006 C206.51409379 -1.25688065 206.51409379 -1.25688065 209.8240242 1.54288387 C210.21209621 2.02373219 210.60016823 2.50458052 211 3 C210.3125 4.875 210.3125 4.875 209 7 C207.34183216 7.68753301 205.67540664 8.35561283 204 9 C203.67 9.99 203.34 10.98 203 12 C202.01 11.67 201.02 11.34 200 11 C200.33 12.32 200.66 13.64 201 15 C199.68 15 198.36 15 197 15 C197.66 15.33 198.32 15.66 199 16 C198.67 16.99 198.34 17.98 198 19 C196.35 19 194.7 19 193 19 C192.938125 19.556875 192.87625 20.11375 192.8125 20.6875 C191.68603149 23.89360267 189.40010896 25.69689624 187 28 C184.66039309 30.28531884 182.32997848 32.57987162 180 34.875 C179.09507812 35.75478516 179.09507812 35.75478516 178.171875 36.65234375 C175.19764591 39.59424427 172.55865744 42.49114107 170.1875 45.9453125 C169.465625 46.95335937 168.74375 47.96140625 168 49 C167.34 49 166.68 49 166 49 C166.33 50.32 166.66 51.64 167 53 C166.3279805 52.83766876 165.655961 52.67533752 164.96357727 52.50808716 C161.45699009 51.90690428 158.14181135 51.87275891 154.58276367 51.87060547 C153.85361252 51.86885315 153.12446136 51.86710083 152.37321472 51.86529541 C149.97144158 51.86090754 147.56974259 51.86380501 145.16796875 51.8671875 C143.49034104 51.86651336 141.81271343 51.86554242 140.13508606 51.86428833 C136.62056548 51.86281532 133.10607035 51.86495236 129.59155273 51.86962891 C125.10284735 51.87531274 120.61420194 51.87205321 116.12549877 51.86605644 C112.66038061 51.86242884 109.19527646 51.86359973 105.73015785 51.86618423 C104.07607326 51.86684811 102.42198736 51.86604406 100.76790428 51.86370468 C98.44704231 51.86114343 96.12627492 51.86506784 93.80541992 51.87060547 C92.488134 51.87140106 91.17084808 51.87219666 89.81364441 51.87301636 C85.80340246 52.00654615 81.97363255 52.46258064 78 53 C77.34 53 76.68 53 76 53 C74.8312519 56.5062443 74.87485733 59.6477866 74.90234375 63.29296875 C74.9037587 63.99899734 74.90517365 64.70502594 74.90663147 65.43244934 C74.91222236 67.68417626 74.92477312 69.93580321 74.9375 72.1875 C74.94251618 73.71549335 74.94707888 75.24348827 74.95117188 76.77148438 C74.9621888 80.51436135 74.97944713 84.25716373 75 88 C76.04540199 87.89083504 76.04540199 87.89083504 77.11192322 87.77946472 C87.68966474 86.8110074 98.20524176 86.93191928 108.81640625 87.05078125 C110.80606383 87.07005235 112.79572351 87.08910678 114.78538513 87.10795593 C118.92802055 87.14867127 123.07057855 87.19386509 127.21313477 87.24194336 C132.52249339 87.3029293 137.83187422 87.34966203 143.14140415 87.39277363 C147.23778957 87.42808264 151.33404251 87.4723167 155.4303112 87.51912498 C157.38910793 87.54015473 159.34794079 87.55806168 161.30679512 87.5727787 C164.03488817 87.5943165 166.76255834 87.62821659 169.49047852 87.6652832 C170.2972403 87.66901443 171.10400208 87.67274567 171.93521118 87.67658997 C175.78084124 87.74176352 178.73118517 87.87850415 182 90 C182.721875 90.33 183.44375 90.66 184.1875 91 C186 92 186 92 187 94 C187.66 94.598125 188.32 95.19625 189 95.8125 C193.1481293 100.34951642 192.18083861 106.97023672 192.23706055 112.80395508 C192.25017273 113.78669907 192.26328491 114.76944305 192.27679443 115.78196716 C192.31854131 119.02778255 192.35308754 122.27362226 192.38671875 125.51953125 C192.41238576 127.78008656 192.43816971 130.04064054 192.46406555 132.30119324 C192.51701138 137.03971425 192.56593554 141.77825839 192.61254883 146.5168457 C192.67287648 152.57957204 192.7471239 158.6420402 192.82492352 164.70456409 C192.88261852 169.3740143 192.93086995 174.04352782 192.976511 178.71310997 C192.99986496 180.9477789 193.02660317 183.18241518 193.05682945 185.41700172 C193.09815237 188.54727898 193.12623405 191.677416 193.15112305 194.80786133 C193.17357841 196.18359818 193.17357841 196.18359818 193.19648743 197.58712769 C193.22335664 203.0761112 192.55248193 207.72923332 191 213 C190.34 212.67 189.68 212.34 189 212 C188.6596875 212.928125 188.6596875 212.928125 188.3125 213.875 C186.61583557 216.6219805 184.94748289 216.86635273 182 218 C181.67 218.99 181.34 219.98 181 221 C179.3125 221.5625 179.3125 221.5625 177 222 C175.80601341 222.50067804 175.80601341 222.50067804 174.58790588 223.01147079 C169.46964143 224.42163986 164.56666213 224.27521414 159.28100586 224.25396729 C158.09239834 224.25708727 156.90379082 224.26020725 155.67916489 224.26342177 C152.38709431 224.2700131 149.09525234 224.26764819 145.80319571 224.26144934 C142.248494 224.25692113 138.69381214 224.26391124 135.13911438 224.26940918 C128.17150304 224.27830746 121.20393478 224.27637732 114.23632175 224.2705839 C108.55927764 224.26606044 102.88224558 224.2654575 97.2052002 224.26763153 C96.39594326 224.267938 95.58668632 224.26824446 94.75290644 224.26856022 C93.10841258 224.26919973 91.46391872 224.26984816 89.81942487 224.2705054 C74.38574562 224.27621221 58.95209009 224.26964983 43.51841474 224.25890467 C30.33599496 224.25000942 17.15361051 224.25148706 3.97119141 224.26074219 C-11.37142676 224.27150909 -26.71402397 224.27562026 -42.05664539 224.26951766 C-43.7023042 224.26888067 -45.34796301 224.26825192 -46.99362183 224.26763153 C-47.80304306 224.26732298 -48.6124643 224.26701443 -49.44641346 224.26669653 C-55.09051171 224.26498565 -60.73459647 224.26785039 -66.37869263 224.27259064 C-73.29652058 224.27827301 -80.21430333 224.27653376 -87.13212627 224.26602915 C-90.64772228 224.26086292 -94.1632437 224.25855465 -97.67883873 224.26532745 C-111.38668897 224.28529164 -125.06343128 224.10198778 -138.74841738 223.29085752 C-140.73355232 223.17373649 -142.71933294 223.06772805 -144.70510483 222.96195436 C-146.48982885 222.84286544 -146.48982885 222.84286544 -148.31060791 222.7213707 C-149.89000845 222.62172347 -149.89000845 222.62172347 -151.50131607 222.52006316 C-154 222 -154 222 -156 219 C-156.495 219.99 -156.495 219.99 -157 221 C-157.2475 220.360625 -157.495 219.72125 -157.75 219.0625 C-158.1625 218.381875 -158.575 217.70125 -159 217 C-159.9590625 216.7834375 -159.9590625 216.7834375 -160.9375 216.5625 C-163 216 -163 216 -164.625 213.75 C-167.30233825 208.39532349 -168.29452833 204.20286718 -168.2784729 198.20578003 C-168.2842653 197.42774965 -168.2900577 196.64971928 -168.29602563 195.84811223 C-168.31301077 193.24489071 -168.31590088 190.64184664 -168.31884766 188.03857422 C-168.32814708 186.17080247 -168.33831578 184.30303488 -168.34928894 182.43527222 C-168.37660716 177.36528945 -168.39174476 172.2953345 -168.40471697 167.22529745 C-168.42034611 161.92288114 -168.44713903 156.62052156 -168.4727478 151.31814575 C-168.5195545 141.27439764 -168.55628649 131.23063882 -168.58942068 121.18683732 C-168.62759538 109.7645604 -168.67703385 98.34234099 -168.72740483 86.92011237 C-168.80541473 69.18097891 -168.87727056 51.44183112 -168.93994141 33.70263672 C-168.9431093 32.80801224 -168.9462772 31.91338776 -168.94954109 30.99165344 C-168.95828888 28.50785351 -168.96692854 26.02405325 -168.97549438 23.54025269 C-168.97802109 22.81312163 -168.9805478 22.08599058 -168.98315108 21.33682525 C-169.00492031 14.90536824 -168.61279081 12.41918622 -165 7 C-161.875 5.8125 -161.875 5.8125 -159 5 C-159 4.34 -159 3.68 -159 3 C-158.34 3 -157.68 3 -157 3 C-157 2.34 -157 1.68 -157 1 C-156.01 1.33 -155.02 1.66 -154 2 C-152.33277769 1.33472413 -150.6661909 0.66785487 -149 0 C-146.11300468 -0.26450634 -146.11300468 -0.26450634 -142.87619019 -0.28520203 C-141.02968369 -0.30411499 -141.02968369 -0.30411499 -139.14587402 -0.32341003 C-137.78979546 -0.3273694 -136.43371632 -0.33113174 -135.07763672 -0.3347168 C-133.64335485 -0.34565741 -132.20907925 -0.35744871 -130.77481079 -0.37002563 C-126.88662018 -0.40157563 -122.99845633 -0.420855 -119.11017752 -0.43764853 C-115.04094816 -0.45701988 -110.97179327 -0.48673901 -106.90261841 -0.51509094 C-100.07166215 -0.56113059 -93.24069653 -0.59953638 -86.40966797 -0.63305664 C-78.50872051 -0.67188716 -70.60789327 -0.72116395 -62.70704448 -0.77638692 C-55.10756074 -0.82939755 -47.50805317 -0.87658606 -39.90851212 -0.92057228 C-36.67331831 -0.93930774 -33.43814277 -0.95980876 -30.2029686 -0.98166466 C-26.39614913 -1.00700768 -22.58933622 -1.02716936 -18.78246689 -1.043293 C-17.38401341 -1.05000763 -15.98556705 -1.05845601 -14.58713531 -1.06874657 C-12.68139919 -1.08246769 -10.77561712 -1.08929582 -8.86984253 -1.0957489 C-7.8024478 -1.1014474 -6.73505306 -1.1071459 -5.63531303 -1.11301708 C-3 -1 -3 -1 0 0 Z M-1 2 C-1 3.98 -1 5.96 -1 8 C-0.67 8 -0.34 8 0 8 C0 6.02 0 4.04 0 2 C-0.33 2 -0.66 2 -1 2 Z M208 2 C209 5 209 5 209 5 Z M-1 13 C-1 58.54 -1 104.08 -1 151 C-0.67 151 -0.34 151 0 151 C0 105.46 0 59.92 0 13 C-0.33 13 -0.66 13 -1 13 Z M-62 48 C-62 48.33 -62 48.66 -62 49 C-59.69 49 -57.38 49 -55 49 C-55 48.67 -55 48.34 -55 48 C-57.31 48 -59.62 48 -62 48 Z M72 54 C73 57 73 57 73 57 Z M73 57 C73 64.92 73 72.84 73 81 C73.33 81 73.66 81 74 81 C74 73.08 74 65.16 74 57 C73.67 57 73.34 57 73 57 Z M-116 65 C-116 69.29 -116 73.58 -116 78 C-115.67 78 -115.34 78 -115 78 C-115 73.71 -115 69.42 -115 65 C-115.33 65 -115.66 65 -116 65 Z M188 98 C188.33 99.65 188.66 101.3 189 103 C189.33 101.68 189.66 100.36 190 99 C189.34 98.67 188.68 98.34 188 98 Z M-116 101 C-115 103 -115 103 -115 103 Z M190 103 C190 105.31 190 107.62 190 110 C190.33 110 190.66 110 191 110 C191 107.69 191 105.38 191 103 C190.67 103 190.34 103 190 103 Z M-116 118 C-115 120 -115 120 -115 120 Z M29 134 C33 135 33 135 33 135 Z M-1 158 C-1 158.66 -1 159.32 -1 160 C-1.99 160.33 -2.98 160.66 -4 161 C-2.68 161 -1.36 161 0 161 C-0.33 160.01 -0.66 159.02 -1 158 Z M190 203 C190 204.65 190 206.3 190 208 C190.33 208 190.66 208 191 208 C191 206.35 191 204.7 191 203 C190.67 203 190.34 203 190 203 Z M-153 220 C-153 220.33 -153 220.66 -153 221 C-149.37 221 -145.74 221 -142 221 C-142 220.67 -142 220.34 -142 220 C-145.63 220 -149.26 220 -153 220 Z M-141 221 C-141 221.33 -141 221.66 -141 222 C-135.39 222 -129.78 222 -124 222 C-124 221.67 -124 221.34 -124 221 C-129.61 221 -135.22 221 -141 221 Z M-86 221 C-86 221.33 -86 221.66 -86 222 C-84.35 222 -82.7 222 -81 222 C-81 221.67 -81 221.34 -81 221 C-82.65 221 -84.3 221 -86 221 Z M158 221 C158 221.33 158 221.66 158 222 C159.65 222 161.3 222 163 222 C163 221.67 163 221.34 163 221 C161.35 221 159.7 221 158 221 Z "
          fill="#430607" transform="translate(887,337)"/>
    <path d="M0 0 C2.5763855 -0.38311005 2.5763855 -0.38311005 5.90576172 -0.39440918 C7.79401421 -0.41143387 7.79401421 -0.41143387 9.72041321 -0.42880249 C11.12350527 -0.4261588 12.52659675 -0.42318751 13.9296875 -0.41992188 C15.40142972 -0.42725832 16.87316616 -0.4358433 18.34489441 -0.44558716 C22.3515686 -0.46787069 26.35803751 -0.47073 30.36476517 -0.46883965 C33.7116787 -0.46872012 37.05854848 -0.47727797 40.40544987 -0.48561716 C48.30890365 -0.50488036 56.21225183 -0.50772642 64.11572266 -0.50097656 C72.25572136 -0.49435184 80.39526506 -0.51712974 88.53517151 -0.55429029 C95.52896733 -0.58505452 102.52261742 -0.59633951 109.51647949 -0.59245348 C113.69087397 -0.59039079 117.86491542 -0.5957885 122.03924561 -0.62034607 C125.97270408 -0.64271862 129.90542923 -0.64064924 133.83889198 -0.62041855 C135.27632537 -0.61702556 136.71380907 -0.62202333 138.15117455 -0.63640213 C148.35064648 -0.73132202 155.31202652 0.83806819 163.5625 6.875 C165.55075735 9.81416304 165.73149212 12.50939757 166 16 C166.66 15.67 167.32 15.34 168 15 C168.78893666 20.53895605 169.13494611 25.86907384 169.08901978 31.45869446 C169.08649621 32.27195653 169.08397265 33.0852186 169.08137262 33.92312497 C169.07170918 36.62758783 169.05466754 39.33195149 169.03759766 42.03637695 C169.02908397 43.98340168 169.0210134 45.9304284 169.01335144 47.87745667 C168.99121968 53.14977513 168.96253884 58.42203908 168.93239641 63.6943171 C168.90168059 69.21287791 168.87609295 74.73146292 168.84970093 80.25004578 C168.80456456 89.51120179 168.75508614 98.7723272 168.703125 108.03344727 C168.64307249 118.74784823 168.59031875 129.46226683 168.54135668 140.17672378 C168.49405911 150.4827872 168.44122993 160.78881539 168.38599777 171.0948391 C168.36260375 175.48273215 168.34123393 179.87062824 168.32149124 184.2585392 C168.29805115 189.41890375 168.26980649 194.57921986 168.23780251 199.73953819 C168.22682865 201.63625563 168.2175425 203.53298367 168.21003914 205.42971802 C168.19955169 208.01193718 168.18303975 210.59404833 168.16494751 213.17622375 C168.16245717 214.31054218 168.16245717 214.31054218 168.15991652 215.46777612 C168.13246398 218.58096731 167.99222882 221.02331353 167 224 C152.04040767 224.02333923 137.08081675 224.04098422 122.1212101 224.05181217 C115.17552711 224.05697295 108.22985542 224.0640115 101.28417969 224.07543945 C94.58634663 224.08645439 87.88852775 224.09227771 81.19068527 224.09487724 C78.63011871 224.09673075 76.06955282 224.10034994 73.50899124 224.10573006 C69.93387693 224.11294589 66.35881177 224.11399071 62.78369141 224.11352539 C61.71554703 224.11712067 60.64740265 224.12071594 59.54689026 224.12442017 C58.57651321 224.1230455 57.60613617 224.12167084 56.60635376 224.12025452 C55.7601478 224.12117631 54.91394184 224.1220981 54.04209328 224.12304783 C52 224 52 224 50 223 C48.875 220.9375 48.875 220.9375 48 219 C47.01 219 46.02 219 45 219 C42.3125 217.125 42.3125 217.125 40 215 C40 214.34 40 213.68 40 213 C39.01 212.67 38.02 212.34 37 212 C35.08172778 210.38865133 34.07924059 209.179612 33.0625 206.875 C32.5365625 205.946875 32.5365625 205.946875 32 205 C31.4225 204.855625 30.845 204.71125 30.25 204.5625 C27.39341968 203.84835492 25.70586138 202.25391994 23.52734375 200.3359375 C22.11259479 199.09848444 20.62082025 197.9506241 19.125 196.8125 C18.42375 196.214375 17.7225 195.61625 17 195 C17 194.34 17 193.68 17 193 C16.34 193 15.68 193 15 193 C15 192.34 15 191.68 15 191 C14.41992188 190.73832031 13.83984375 190.47664062 13.2421875 190.20703125 C10.86901245 188.9294858 9.1199157 187.49414053 7.125 185.6875 C4.7447523 183.54334975 2.63861791 181.77985843 -0.11645508 180.1015625 C-2.25853582 178.30389642 -2.92652163 177.36663593 -3.48205566 174.59468079 C-3.58208244 171.51807298 -3.49086185 168.49999692 -3.33203125 165.42578125 C-3.29897385 164.30560104 -3.26591644 163.18542084 -3.2318573 162.03129578 C-3.12079163 158.45671301 -2.96794806 154.88540287 -2.8125 151.3125 C-2.68367146 147.72905129 -2.56330887 144.14543491 -2.44670105 140.56156921 C-2.37119304 138.33208836 -2.28687502 136.10288569 -2.19306946 133.87409973 C-2.15360703 132.8693309 -2.11414459 131.86456207 -2.07348633 130.8293457 C-2.03540359 129.94285843 -1.99732086 129.05637115 -1.95808411 128.14302063 C-1.84752603 125.94691703 -1.84752603 125.94691703 -3 124 C-2.34 124 -1.68 124 -1 124 C-0.67 123.01 -0.34 122.02 0 121 C0.33 121.66 0.66 122.32 1 123 C2.485 122.505 2.485 122.505 4 122 C4 121.34 4 120.68 4 120 C7.27999504 116.3953354 10.53451123 113.42273715 15.25 112.0625 C17.49951555 112.01137465 19.74990355 112 22 112 C21.505 111.01 21.505 111.01 21 110 C21.63808594 109.80664062 22.27617187 109.61328125 22.93359375 109.4140625 C23.75988281 109.15367187 24.58617187 108.89328125 25.4375 108.625 C26.26121094 108.36976563 27.08492188 108.11453125 27.93359375 107.8515625 C30.17798016 107.19117773 30.17798016 107.19117773 31 105 C33.5625 104.375 33.5625 104.375 36 104 C36 103.34 36 102.68 36 102 C36.78375 101.87625 37.5675 101.7525 38.375 101.625 C41.14057822 101.20882007 41.14057822 101.20882007 43 99 C43 99.66 43 100.32 43 101 C43.66 101 44.32 101 45 101 C45 100.34 45 99.68 45 99 C48.31342095 96.51493429 51.02779993 94.99305002 55 94 C55.99 92.515 55.99 92.515 57 91 C58.66666667 91 60.33333333 91 62 91 C62.33 90.34 62.66 89.68 63 89 C63.99 88.67 64.98 88.34 66 88 C65.67 87.34 65.34 86.68 65 86 C69.30769231 82.92307692 69.30769231 82.92307692 72.8125 83.3125 C73.534375 83.539375 74.25625 83.76625 75 84 C75 83.34 75 82.68 75 82 C76.875 80.9375 76.875 80.9375 79 80 C79.66 80.33 80.32 80.66 81 81 C81.99 79.02 81.99 79.02 83 77 C83.99 77 84.98 77 86 77 C85.67 76.34 85.34 75.68 85 75 C85.969375 74.87625 86.93875 74.7525 87.9375 74.625 C88.948125 74.41875 89.95875 74.2125 91 74 C91.33 73.34 91.66 72.68 92 72 C92.7425 71.71125 93.485 71.4225 94.25 71.125 C97.33778039 69.86181712 99.47888085 68.16095927 102 66 C102.33 66.66 102.66 67.32 103 68 C103.33 67.34 103.66 66.68 104 66 C104.66 66 105.32 66 106 66 C106 65.01 106 64.02 106 63 C106.66 63.33 107.32 63.66 108 64 C108.66 63.67 109.32 63.34 110 63 C110.65555119 60.47266765 110.65555119 60.47266765 111 58 C111.33 58 111.66 58 112 58 C112.495 53.05 112.495 53.05 113 48 C110.57769043 48.00785522 110.57769043 48.00785522 108.10644531 48.01586914 C102.12044834 48.03395637 96.13445378 48.04544569 90.1484375 48.05493164 C87.55663649 48.05996332 84.96483833 48.06678927 82.37304688 48.07543945 C78.64973245 48.08755591 74.92645553 48.09323995 71.203125 48.09765625 C70.04258606 48.10281754 68.88204712 48.10797882 67.68634033 48.11329651 C66.06511261 48.11340981 66.06511261 48.11340981 64.41113281 48.11352539 C63.46071106 48.115746 62.51028931 48.11796661 61.53106689 48.12025452 C59 48 59 48 56.7243042 47.43040466 C56.15528381 47.28837112 55.58626343 47.14633759 55 47 C53.15403238 48.84596762 53.7817879 51.85834666 53.71875 54.3359375 C53.68136719 55.62757813 53.64398438 56.91921875 53.60546875 58.25 C53.56978458 59.6249864 53.53463428 60.99998675 53.5 62.375 C53.43227826 65.04969234 53.35850034 67.72397743 53.28125 70.3984375 C53.25095703 71.59130371 53.22066406 72.78416992 53.18945312 74.01318359 C53 77 53 77 52 80 C49 81 49 81 46 81 C45.34 81.66 44.68 82.32 44 83 C42.989375 83.165 41.97875 83.33 40.9375 83.5 C39.968125 83.665 38.99875 83.83 38 84 C37.67 84.66 37.34 85.32 37 86 C34.6859378 86.73075648 32.35171131 87.40138258 30 88 C30 89.32 30 90.64 30 92 C29.34 92 28.68 92 28 92 C28 91.34 28 90.68 28 90 C27.01 90 26.02 90 25 90 C24.67 91.65 24.34 93.3 24 95 C22.515 94.505 22.515 94.505 21 94 C18.97209016 95.29048808 16.97630407 96.63178949 15 98 C13.845 98.474375 12.69 98.94875 11.5 99.4375 C8.57741496 100.74222546 7.09860313 101.63749316 4.8125 103.6875 C2 106 2 106 -2 106 C-2.04628183 92.62229471 -2.08184806 79.24460837 -2.10362434 65.86683941 C-2.11407433 59.65541957 -2.12825572 53.44405439 -2.15087891 47.23266602 C-2.17256391 41.24156467 -2.18455946 35.25051599 -2.18975449 29.25937843 C-2.19345806 26.97036726 -2.20068991 24.68135906 -2.21146011 22.39237022 C-2.22591724 19.19340088 -2.22798036 15.9946509 -2.22705078 12.7956543 C-2.23424133 11.84331406 -2.24143188 10.89097382 -2.24884033 9.90977478 C-2.246091 9.03899292 -2.24334167 8.16821106 -2.24050903 7.27104187 C-2.24235262 6.51424983 -2.24419621 5.75745779 -2.24609566 4.97773266 C-2 3 -2 3 0 0 Z M162 8 C163 10 163 10 163 10 Z M167 19 C168 21 168 21 168 21 Z M11.1875 116 C10.795625 116.66 10.40375 117.32 10 118 C12.9719385 116.87548273 15.33440687 115.77706209 18 114 C14.08792564 113.53608535 14.08792564 113.53608535 11.1875 116 Z M105.25 122.4375 C104.63125 123.2109375 104.63125 123.2109375 104 124 C103 125 103 125 101.1875 125.4453125 C96.68389519 126.58729801 92.4520004 128.9109997 88.75 131.6875 C86.83114441 133.12664169 85.29988942 133.44485428 83 134 C82.67 134.66 82.34 135.32 82 136 C80.87078125 136.2165625 80.87078125 136.2165625 79.71875 136.4375 C76.64712948 137.07300769 75.01475389 138.15820842 72.5 140 C69.3144633 142.33306913 66.92661307 143.44695591 63 144 C63 144.66 63 145.32 63 146 C59.91190305 147.76462683 58.76687864 148 55 148 C52.86395692 151.20406462 52.75791092 151.99600747 52.8046875 155.66796875 C52.81113281 156.56064453 52.81757813 157.45332031 52.82421875 158.37304688 C52.84097656 159.30181641 52.85773438 160.23058594 52.875 161.1875 C52.88402344 162.12787109 52.89304687 163.06824219 52.90234375 164.03710938 C52.92590944 166.35832968 52.95880884 168.67903644 53 171 C53.66 171 54.32 171 55 171 C55 171.66 55 172.32 55 173 C71.17 173 87.34 173 104 173 C104.495 172.01 104.495 172.01 105 171 C105.66 171.66 106.32 172.32 107 173 C110.09926819 172.67801034 110.09926819 172.67801034 113 172 C113.02526838 165.03996553 113.04283222 158.0799428 113.05493164 151.11987305 C113.05997341 148.75007688 113.06680665 146.38028385 113.07543945 144.01049805 C113.0875119 140.61245961 113.09322971 137.21446215 113.09765625 133.81640625 C113.10281754 132.74975235 113.10797882 131.68309845 113.11329651 130.5841217 C113.11337204 129.60318039 113.11344757 128.62223907 113.11352539 127.61157227 C113.115746 126.74331314 113.11796661 125.87505402 113.12025452 124.98048401 C113.21954667 122.99856319 113.21954667 122.99856319 112 122 C112 121.67 112 121.34 112 121 C108.3247482 120.64824363 108.3247482 120.64824363 105.25 122.4375 Z M148 222 C148 222.33 148 222.66 148 223 C152.29 223 156.58 223 161 223 C161 222.67 161 222.34 161 222 C156.71 222 152.42 222 148 222 Z "
          fill="#450909" transform="translate(342,337)"/>
    <path d="M0 0 C0.99 0 1.98 0 3 0 C3 0.66 3 1.32 3 2 C13.56 2 24.12 2 35 2 C35 1.34 35 0.68 35 0 C35.99 0.495 35.99 0.495 37 1 C38.951895 1.0863275 40.90681529 1.10706949 42.8605957 1.09765625 C44.09401199 1.09435303 45.32742828 1.0910498 46.59822083 1.08764648 C47.26122507 1.08352753 47.92422932 1.07940857 48.6073246 1.07516479 C50.70096994 1.06234577 52.79455131 1.05586777 54.88822937 1.05102539 C60.10654952 1.03767523 65.32481175 1.01389775 70.54309082 0.98962402 C75.62897922 0.96632388 80.71484906 0.94785196 85.80078125 0.9375 C86.50617161 0.93597931 87.21156197 0.93445862 87.93832779 0.93289185 C99.65019873 0.91652739 111.31212961 1.25010155 123 2 C123 1.34 123 0.68 123 0 C126.96 0 130.92 0 135 0 C135 0.33 135 0.66 135 1 C141.93 1.495 141.93 1.495 149 2 C149.33 3.32 149.66 4.64 150 6 C149.360625 6.268125 148.72125 6.53625 148.0625 6.8125 C145.66868314 7.88667752 145.66868314 7.88667752 145 11 C141.9375 12.6875 141.9375 12.6875 139 14 C139 14.99 139 15.98 139 17 C138.34 17 137.68 17 137 17 C137 17.66 137 18.32 137 19 C134.33333333 19.66666667 131.66666667 20.33333333 129 21 C128.855625 21.598125 128.71125 22.19625 128.5625 22.8125 C128.1127561 24.56150404 127.57107659 26.28677023 127 28 C125.125 28.5625 125.125 28.5625 123 29 C122.01 29.66 121.02 30.32 120 31 C120.33 31.66 120.66 32.32 121 33 C117 35 117 35 115.04296875 35.859375 C112.79363349 37.11521801 111.64923956 38.36190659 110.0625 40.375 C107.60717927 43.33746506 105.24331738 45.86623856 102 48 C100.68 48 99.36 48 98 48 C98.33 48.99 98.66 49.98 99 51 C96.12255732 52.43872134 93.65434078 52.11937153 90.43896484 52.11352539 C89.76567642 52.11367142 89.092388 52.11381744 88.3986969 52.1139679 C86.16941119 52.11327027 83.94020865 52.10548489 81.7109375 52.09765625 C80.16679937 52.09579154 78.62266066 52.09436789 77.07852173 52.09336853 C73.01129528 52.08954754 68.94410445 52.07972082 64.87689209 52.06866455 C60.7278288 52.05844144 56.57875975 52.05386898 52.4296875 52.04882812 C44.28644197 52.03809819 36.14322542 52.02102677 28 52 C26.82085262 55.53744213 26.87548799 58.71453432 26.90234375 62.39306641 C26.90380402 63.14292313 26.90526428 63.89277985 26.9067688 64.6653595 C26.91057289 66.29248335 26.91668748 67.91960307 26.92483521 69.54671097 C26.93758154 72.11801227 26.94410963 74.6892621 26.94897461 77.2605896 C26.96040889 82.71541617 26.97966279 88.17020031 27 93.625 C27.0235534 99.95130479 27.04395171 106.27758561 27.05593872 112.6039238 C27.06244835 115.14391019 27.07495465 117.68382344 27.08764648 120.2237854 C27.09127688 121.77109716 27.09462887 123.3184096 27.09765625 124.86572266 C27.10282257 125.57742111 27.10798889 126.28911957 27.11331177 127.02238464 C27.11349318 128.68201961 27.06227598 130.34153386 27 132 C26.67 132.33 26.34 132.66 26 133 C25.99545343 135.03061088 26.06156722 137.0614364 26.15625 139.08984375 C26.20910156 140.34990234 26.26195312 141.60996094 26.31640625 142.90820312 C26.43566984 145.55940044 26.55955576 148.21034598 26.68359375 150.86132812 C26.98100165 158.01725225 27.01193694 164.90076056 26 172 C26.66 172 27.32 172 28 172 C28.33 172.66 28.66 173.32 29 174 C47.81 174 66.62 174 86 174 C86 159.48 86 144.96 86 130 C80.91135013 129.13125136 80.91135013 129.13125136 75.92236328 128.88647461 C75.18204865 128.88655014 74.44173401 128.88662567 73.6789856 128.88670349 C72.90062347 128.89186478 72.12226135 128.89702606 71.3203125 128.90234375 C70.50754852 128.9037587 69.69478455 128.90517365 68.85739136 128.90663147 C66.27988899 128.91219665 63.7024758 128.9247426 61.125 128.9375 C59.36979293 128.9425195 57.61458448 128.94708162 55.859375 128.95117188 C51.57288268 128.96215466 47.28645643 128.97939508 43 129 C43 128.34 43 127.68 43 127 C40.03 127 37.06 127 34 127 C35.23551244 123.29346269 36.96665078 122.35084565 40 120 C40.33 119.34 40.66 118.68 41 118 C41.66 118 42.32 118 43 118 C43.495 116.515 43.495 116.515 44 115 C46.0625 114.3125 46.0625 114.3125 48 114 C48 113.34 48 112.68 48 112 C48.66 111.67 49.32 111.34 50 111 C49.67 110.34 49.34 109.68 49 109 C54.75 104 54.75 104 57 104 C57.598125 103.071875 58.19625 102.14375 58.8125 101.1875 C61.00696913 97.98984498 62.58693721 96.70653139 66 95 C65.67 94.34 65.34 93.68 65 93 C65.78375 92.38125 66.5675 91.7625 67.375 91.125 C69.96837647 89.10141339 69.96837647 89.10141339 72 87 C72.33 87.66 72.66 88.32 73 89 C73.7027002 88.1850708 74.40540039 87.3701416 75.12939453 86.53051758 C80.20310164 82.34000176 86.69695902 83.38830864 92.9296875 83.51171875 C94.28873387 83.52105488 95.64779718 83.52816722 97.00686646 83.53315735 C100.56814786 83.55216507 104.12839479 83.60120879 107.68927002 83.65667725 C111.32916269 83.70800633 114.96922402 83.73070029 118.609375 83.75585938 C125.74000419 83.80933609 132.86993423 83.89457092 140 84 C140.17748058 100.43773972 140.34313154 116.87554973 140.49477577 133.31354618 C140.56546441 140.94632207 140.63999515 148.57902403 140.72363281 156.21166992 C140.79653803 162.86578442 140.86217121 169.51992454 140.91914403 176.17419523 C140.94955108 179.69621421 140.9835504 183.21811439 141.02626419 186.7400074 C141.07385939 190.67563962 141.10521604 194.61131187 141.13525391 198.54711914 C141.1517952 199.709496 141.16833649 200.87187286 141.18537903 202.06947327 C141.21543809 207.79079472 140.9649533 212.60640245 139 218 C138.443125 218.0825 137.88625 218.165 137.3125 218.25 C134.28481706 219.23195122 132.36171191 220.90070052 130 223 C130 223.33 130 223.66 130 224 C113.56999019 224.15455727 97.13993609 224.30256656 80.70979977 224.4429636 C73.07953274 224.50831455 65.44929495 224.57573891 57.8190918 224.64819336 C51.1619429 224.71140251 44.50477189 224.77056966 37.84754568 224.82505554 C34.32867229 224.85399225 30.80984081 224.8848356 27.29102898 224.92053413 C-0.87859089 225.20387892 -0.87859089 225.20387892 -13 224 C-13 223.34 -13 222.68 -13 222 C-14.175625 221.814375 -14.175625 221.814375 -15.375 221.625 C-18 221 -18 221 -20 219 C-20.639375 218.443125 -21.27875 217.88625 -21.9375 217.3125 C-24.55205019 214.38103464 -25.59380177 211.65611541 -27 208 C-27.33 208 -27.66 208 -28 208 C-28.8623609 196.65349986 -29.11516674 185.40313504 -29.02172852 174.02734375 C-29.01155441 172.29101831 -29.00186429 170.55468998 -28.99261475 168.81835938 C-28.96644667 164.15825789 -28.93360794 159.49822568 -28.89946485 154.83817673 C-28.86480714 149.94821292 -28.83643218 145.0582125 -28.80735779 140.16821289 C-28.75150579 130.93222969 -28.69009814 121.69629233 -28.62663645 112.46035862 C-28.55459267 101.93542614 -28.48883068 91.41045724 -28.42356598 80.88548088 C-28.28930963 59.25693993 -28.14726328 37.62845605 -28 16 C-27.34 16 -26.68 16 -26 16 C-25.896875 14.741875 -25.79375 13.48375 -25.6875 12.1875 C-25.35767678 9.63475861 -25.12623746 8.20197994 -23.75 6 C-21.41516867 4.66581067 -19.64213132 4.78577314 -17 5 C-16.67 4.01 -16.34 3.02 -16 2 C-10.59255982 1.22750855 -5.46137814 0.90247539 0 1 C0 0.67 0 0.34 0 0 Z M-27 17 C-26 21 -26 21 -26 21 Z M125 25 C126 27 126 27 126 27 Z M26 50 C26.33 50.66 26.66 51.32 27 52 C37.395 51.505 37.395 51.505 48 51 C48 50.67 48 50.34 48 50 C40.74 50 33.48 50 26 50 Z M91 50 C91 50.33 91 50.66 91 51 C92.98 51 94.96 51 97 51 C97 50.67 97 50.34 97 50 C95.02 50 93.04 50 91 50 Z M24 58 C24 59.65 24 61.3 24 63 C24.33 63 24.66 63 25 63 C25 61.35 25 59.7 25 58 C24.67 58 24.34 58 24 58 Z M25 68 C25 82.52 25 97.04 25 112 C25.33 112 25.66 112 26 112 C26 97.48 26 82.96 26 68 C25.67 68 25.34 68 25 68 Z M69 91 C69.33 91.66 69.66 92.32 70 93 C70.33 92.34 70.66 91.68 71 91 C70.34 91 69.68 91 69 91 Z M24 112 C25 116 25 116 25 116 Z M71 126 C75 127 75 127 75 127 Z M24 134 C25 136 25 136 25 136 Z M24 139 C25 141 25 141 25 141 Z M24 146 C25 148 25 148 25 148 Z M24 161 C25 164 25 164 25 164 Z "
          fill="#683C37" transform="translate(558,335)"/>
    <path d="M0 0 C5.75 2.75 5.75 2.75 8 5 C8.99 5.33 9.98 5.66 11 6 C11 6.66 11 7.32 11 8 C11.99 8.33 12.98 8.66 14 9 C14.99 10.485 14.99 10.485 16 12 C17.66220581 13.00739746 19.33020674 14.00522955 21 15 C23.24347595 16.68260697 25.442218 18.41522969 27.640625 20.15625 C30.55627235 22.4347029 33.55164179 24.5932734 36.56640625 26.73828125 C37.03949219 27.15464844 37.51257813 27.57101562 38 28 C38 28.66 38 29.32 38 30 C38.79857422 30.11408203 38.79857422 30.11408203 39.61328125 30.23046875 C42.97293071 31.31369452 45.36240619 33.21002458 48.1875 35.3125 C48.73341797 35.70373047 49.27933594 36.09496094 49.84179688 36.49804688 C52.97672975 38.84050601 54.42274152 40.14970122 55 44 C55.07894965 46.3357615 55.09762112 48.67375812 55.08229065 51.01080322 C55.07906152 51.71659193 55.07583239 52.42238063 55.07250541 53.14955688 C55.06044301 55.51414793 55.04106756 57.87862216 55.02172852 60.24316406 C55.01158438 61.93831123 55.00189085 63.63346114 54.99261475 65.32861328 C54.96614724 69.93157323 54.93336494 74.53446924 54.89946485 79.13737965 C54.8651085 83.94733771 54.83653753 88.75733002 54.80735779 93.56732178 C54.75121728 102.67620522 54.68985965 111.78504578 54.62663645 120.89388251 C54.55491386 131.26376491 54.48899392 141.63368164 54.42356598 152.00360537 C54.28884263 173.33578151 54.14681732 194.66790389 54 216 C55.43580666 215.99666908 55.43580666 215.99666908 56.90061951 215.99327087 C65.94824261 215.9729455 74.99586105 215.95798273 84.04350185 215.94818783 C88.69429417 215.94298281 93.34506795 215.93592865 97.99584961 215.92456055 C102.48920434 215.91364675 106.98254131 215.90770525 111.47590828 215.90512276 C113.18499086 215.90328376 114.89407254 215.8996928 116.60314751 215.89426994 C139.16479021 215.82556898 139.16479021 215.82556898 143.77734375 218.77734375 C144.49019531 219.49019531 145.20304688 220.20304688 145.9375 220.9375 C147.03384766 222.00291016 147.03384766 222.00291016 148.15234375 223.08984375 C148.76207031 223.72019531 149.37179687 224.35054687 150 225 C151.80392445 227.04125467 151.80392445 227.04125467 153.8125 227.8125 C156.7513481 229.40787468 158.6635991 231.6092642 161 234 C162.86326637 235.57989461 164.74448632 237.13253798 166.64453125 238.66796875 C167.09183594 239.10753906 167.53914062 239.54710937 168 240 C168 240.66 168 241.32 168 242 C168.99 242 169.98 242 171 242 C172.17620113 243.14259539 173.34499642 244.29457437 174.4609375 245.49609375 C176.88357358 247.86339043 179.65673742 249.72810256 182.42578125 251.66796875 C182.94527344 252.10753906 183.46476563 252.54710937 184 253 C184 253.66 184 254.32 184 255 C184.5775 255.2475 185.155 255.495 185.75 255.75 C188.3002997 257.16683317 190.01785701 258.87627537 192 261 C191.67 261.99 191.34 262.98 191 264 C189.34385343 264.38218767 187.67542976 264.71395102 186 265 C185.67 264.67 185.34 264.34 185 264 C182.59671471 263.90233458 180.22220648 263.87003172 177.81846619 263.87974548 C177.05807102 263.87889106 176.29767586 263.87803663 175.51423842 263.87715632 C172.9468875 263.87549922 170.37960083 263.88102661 167.81225586 263.88647461 C165.97961936 263.88675646 164.14698275 263.88659879 162.31434631 263.8860321 C157.32281938 263.88574404 152.33131625 263.89164223 147.33979487 263.89860606 C142.12940894 263.90483809 136.91902251 263.90544328 131.70863342 263.90663147 C121.83468975 263.90974523 111.96075709 263.91795922 102.08681828 263.92798096 C90.84879999 263.93914071 79.61078119 263.9446522 68.37275875 263.94967639 C45.24849971 263.9601418 22.12425047 263.97774211 -1 264 C-3.14924384 259.19580788 -2.94083414 255.67727198 -2.30056953 250.62022793 C-1.82491923 246.47372581 -1.86892901 242.34914624 -1.88647461 238.18016052 C-1.88625132 236.77651051 -1.88625132 236.77651051 -1.88602352 235.34450394 C-1.88671304 232.23672573 -1.89453273 229.12900806 -1.90234375 226.02124023 C-1.90426477 223.78136732 -1.9057277 221.54149398 -1.9067688 219.30162048 C-1.90992221 214.49015437 -1.91617968 209.67870595 -1.92483521 204.86724663 C-1.93840224 197.24605824 -1.94426162 189.62487566 -1.94897461 182.00367737 C-1.95630062 171.30672776 -1.96640521 160.60978559 -1.97949219 149.9128418 C-1.98032 149.23511469 -1.98114781 148.55738759 -1.98200071 147.8591233 C-1.98873994 142.36510233 -1.99566139 136.8710816 -2.00260353 131.37706089 C-2.00865393 126.58462598 -2.01463569 121.79219099 -2.02050781 116.99975586 C-2.02133594 116.32498597 -2.02216407 115.65021607 -2.02301729 114.9549986 C-2.03675527 103.66012821 -2.04644536 92.36525758 -2.05341816 81.07038075 C-2.05837541 73.50834718 -2.06819801 65.94634088 -2.08184814 58.38431823 C-2.08935753 53.66028893 -2.09263336 48.93626325 -2.0948143 44.21222878 C-2.09667152 42.03756869 -2.10024234 39.86290922 -2.10574722 37.68825531 C-2.12990877 27.82471518 -2.10615596 17.98301934 -1.55639648 8.13221741 C-1.51754113 7.41732916 -1.47868578 6.70244092 -1.43865299 5.96588939 C-1.12745058 1.12745058 -1.12745058 1.12745058 0 0 Z "
          fill="#440809" transform="translate(182,296)"/>
    <path d="M0 0 C3.53427491 0.00228965 7.06854515 -0.00124284 10.60281909 -0.00397992 C17.50003154 -0.00839737 24.39723303 -0.00747964 31.29444589 -0.00456728 C36.8994434 -0.00229934 42.50443785 -0.00200672 48.10943568 -0.0030911 C48.91025477 -0.00324433 49.71107387 -0.00339756 50.5361602 -0.00355544 C52.16338974 -0.00387519 53.79061927 -0.0041994 55.4178488 -0.00452803 C70.62717975 -0.00737049 85.83650463 -0.00411416 101.04583458 0.00127234 C114.08962796 0.00574871 127.13341245 0.00495521 140.17720568 0.00035357 C155.35303175 -0.00499775 170.52885255 -0.00710582 185.70467943 -0.00403416 C187.32221333 -0.00371563 188.93974723 -0.00340126 190.55728114 -0.0030911 C191.35301405 -0.00293682 192.14874696 -0.00278255 192.968593 -0.0026236 C198.57099102 -0.00176082 204.17338568 -0.00321597 209.77578318 -0.00557065 C216.59630214 -0.00837461 223.4168096 -0.00761737 230.23732724 -0.00228991 C233.71557782 0.00033757 237.19380921 0.00136815 240.67205966 -0.00193906 C244.44163179 -0.00466348 248.2111496 -0.00125361 251.98071826 0.00374103 C253.62967114 0.00039494 253.62967114 0.00039494 255.3119362 -0.00301874 C260.18528263 0.00954341 264.80865774 0.0944917 269.5973717 1.13072467 C269.2673717 1.79072467 268.9373717 2.45072467 268.5973717 3.13072467 C231.30548684 3.15364714 194.01360305 3.17125138 156.72171256 3.18179 C152.31234567 3.1830406 147.9029788 3.18433494 143.49361193 3.18565631 C142.17695381 3.18604977 142.17695381 3.18604977 140.83369654 3.18645119 C126.64792015 3.19079453 112.46214784 3.19867471 98.27637387 3.20787746 C83.70478213 3.2172512 69.13319252 3.22278814 54.56159788 3.22481316 C45.58065909 3.22618068 36.59973182 3.2304893 27.61879658 3.23864114 C21.44813202 3.24395454 15.27747338 3.24551858 9.1068067 3.24422605 C5.55440034 3.24358981 2.00201404 3.24451835 -1.55038869 3.24993014 C-15.53587943 3.27023005 -29.45392433 3.24067492 -43.4026283 2.13072467 C-43.4026283 1.80072467 -43.4026283 1.47072467 -43.4026283 1.13072467 C-28.93973018 -0.00892489 -14.50081979 -0.01393346 0 0 Z "
          fill="#FBF8EE" transform="translate(789.4026283025742,557.8692753314972)"/>
    <path d="M0 0 C0.99 0 1.98 0 3 0 C2.99907821 0.62175802 2.99815641 1.24351604 2.99720669 1.88411522 C2.97514284 16.99797396 2.95858423 32.11182778 2.94818783 47.22569847 C2.94302685 54.53458611 2.93598792 61.843463 2.92456055 69.15234375 C2.91460766 75.52117438 2.90814513 81.88999724 2.90591151 88.25883543 C2.90460543 91.63251115 2.90152606 95.00616462 2.89426994 98.37983322 C2.88705504 102.14174491 2.88600925 105.90360989 2.88647461 109.66552734 C2.88287933 110.78977615 2.87928406 111.91402496 2.87557983 113.07234192 C2.8769545 114.09320389 2.87832916 115.11406586 2.87974548 116.16586304 C2.87882369 117.05631506 2.8779019 117.94676708 2.87695217 118.8642025 C2.86197831 121.0531472 2.86197831 121.0531472 4 123 C85.51 123 167.02 123 251 123 C251 123.66 251 124.32 251 125 C244.9015311 125.89666238 239.00913508 126.1279188 232.85070801 126.08229065 C231.85565294 126.07906152 230.86059787 126.07583239 229.83538961 126.07250541 C226.5158707 126.06048397 223.19643666 126.04110019 219.87695312 126.02172852 C217.49156882 126.01158004 215.10618255 126.00188699 212.72079468 125.99261475 C206.92524599 125.96893169 201.12973458 125.94051206 195.3342182 125.90998668 C188.58759276 125.87470861 181.84094555 125.84529713 175.09429091 125.81623887 C163.06381673 125.76426804 151.03336884 125.70768821 139.00292969 125.64819336 C127.31999738 125.59042696 115.63705803 125.53484152 103.95410156 125.48217773 C103.23335042 125.47892802 102.51259928 125.4756783 101.77000719 125.4723301 C98.15402718 125.45603981 94.53804699 125.43979227 90.92206669 125.42356598 C60.94801199 125.28900569 30.97399701 125.14688138 1 125 C0.22020438 121.55185968 -0.12395337 118.37546664 -0.12025452 114.84306335 C-0.12231651 113.31820564 -0.12231651 113.31820564 -0.12442017 111.76254272 C-0.12082489 110.65843048 -0.11722961 109.55431824 -0.11352539 108.41674805 C-0.11367142 107.24558945 -0.11381744 106.07443085 -0.1139679 104.86778259 C-0.11327157 100.99907576 -0.10549222 97.13041716 -0.09765625 93.26171875 C-0.09579108 90.57843443 -0.09431844 87.89515278 -0.09336853 85.21186829 C-0.0902633 78.87256835 -0.08206082 72.53328571 -0.07201904 66.19399339 C-0.06083279 58.97515383 -0.05534112 51.75631343 -0.05032361 44.53746736 C-0.03987753 29.69163556 -0.02229375 14.84581892 0 0 Z "
          fill="#FBF8EE" transform="translate(771,386)"/>
    <path d="M0 0 C0.33 0.99 0.66 1.98 1 3 C-2.23256658 3.96072442 -5.14345996 4.12567967 -8.50952148 4.12698364 C-10.1909021 4.13121338 -10.1909021 4.13121338 -11.90625 4.13552856 C-13.13214844 4.13350433 -14.35804688 4.1314801 -15.62109375 4.12939453 C-16.9160376 4.13114685 -18.21098145 4.13289917 -19.54516602 4.13470459 C-23.09988717 4.13926684 -26.65457932 4.1374924 -30.20930099 4.1343255 C-33.94755886 4.13178713 -37.6858143 4.13414435 -41.42407227 4.13571167 C-47.71891726 4.13753265 -54.01375054 4.13513267 -60.30859375 4.13037109 C-67.5359947 4.12496641 -74.76336726 4.12666353 -81.99076748 4.1321975 C-88.22465726 4.13677619 -94.45853862 4.13735507 -100.69242954 4.13475883 C-104.40196253 4.13321705 -108.11148232 4.13294271 -111.8210144 4.13629532 C-127.57275316 4.14864371 -143.27586749 4.03088588 -159 3 C-159 2.34 -159 1.68 -159 1 C-106.53 0.67 -54.06 0.34 0 0 Z "
          fill="#96786C" transform="translate(1082,336)"/>
    <path d="M0 0 C-0.33 0.99 -0.66 1.98 -1 3 C-50.5 2.67 -100 2.34 -151 2 C-148.31900418 -0.68099582 -146.9869781 -0.26128687 -143.23695374 -0.28520203 C-141.39663322 -0.30411499 -141.39663322 -0.30411499 -139.51913452 -0.32341003 C-138.15216119 -0.32737021 -136.78518726 -0.33113244 -135.41821289 -0.3347168 C-133.98437345 -0.34564758 -132.55054033 -0.35743769 -131.11671448 -0.37002563 C-127.21595009 -0.40168466 -123.3152126 -0.42089099 -119.41435933 -0.43764853 C-115.3371042 -0.45696895 -111.25992425 -0.48670792 -107.182724 -0.51509094 C-100.33383878 -0.56119566 -93.48494429 -0.59957915 -86.63598633 -0.63305664 C-78.71294771 -0.67184416 -70.79002991 -0.72110965 -62.86709028 -0.77638692 C-55.25319645 -0.8294045 -47.63927884 -0.87659594 -40.02532768 -0.92057228 C-36.78176071 -0.93931421 -33.53821186 -0.95981633 -30.29466438 -0.98166466 C-26.475573 -1.00701171 -22.65648816 -1.02717176 -18.83734703 -1.043293 C-17.43405846 -1.0500078 -16.03077698 -1.05845627 -14.62751007 -1.06874657 C-12.71504473 -1.08246787 -10.80253359 -1.08929586 -8.89002991 -1.0957489 C-7.81873872 -1.1014474 -6.74744753 -1.1071459 -5.64369297 -1.11301708 C-3 -1 -3 -1 0 0 Z "
          fill="#A68E83" transform="translate(887,337)"/>
    <path d="M0 0 C0.33 0.66 0.66 1.32 1 2 C1.99 2 2.98 2 4 2 C4 1.34 4 0.68 4 0 C34.03 0 64.06 0 95 0 C95 0.66 95 1.32 95 2 C99.29 2 103.58 2 108 2 C108 2.33 108 2.66 108 3 C72.03 3 36.06 3 -1 3 C-0.67 2.01 -0.34 1.02 0 0 Z "
          fill="#FBF8EE" transform="translate(395,558)"/>
    <path d="M0 0 C0.99 0.33 1.98 0.66 3 1 C2.979375 1.94875 2.95875 2.8975 2.9375 3.875 C2.77448174 6.90666283 2.77448174 6.90666283 4 9 C85.51 9 167.02 9 251 9 C251 9.66 251 10.32 251 11 C244.9015311 11.89666238 239.00913508 12.1279188 232.85070801 12.08229065 C231.85565294 12.07906152 230.86059787 12.07583239 229.83538961 12.07250541 C226.5158707 12.06048397 223.19643666 12.04110019 219.87695312 12.02172852 C217.49156882 12.01158004 215.10618255 12.00188699 212.72079468 11.99261475 C206.92524599 11.96893169 201.12973458 11.94051206 195.3342182 11.90998668 C188.58759276 11.87470861 181.84094555 11.84529713 175.09429091 11.81623887 C163.06381673 11.76426804 151.03336884 11.70768821 139.00292969 11.64819336 C127.31999738 11.59042696 115.63705803 11.53484152 103.95410156 11.48217773 C103.23335042 11.47892802 102.51259928 11.4756783 101.77000719 11.4723301 C98.15402718 11.45603981 94.53804699 11.43979227 90.92206669 11.42356598 C60.94801199 11.28900569 30.97399701 11.14688138 1 11 C0.67 7.37 0.34 3.74 0 0 Z "
          fill="#F3EDE4" transform="translate(771,500)"/>
    <path d="M0 0 C0.33 0 0.66 0 1 0 C1 71.28 1 142.56 1 216 C0.67 216 0.34 216 0 216 C0 144.72 0 73.44 0 0 Z "
          fill="#F7F3E9" transform="translate(178,338)"/>
    <path d="M0 0 C0.33 0 0.66 0 1 0 C1 65.01 1 130.02 1 197 C0.67 197 0.34 197 0 197 C0 131.99 0 66.98 0 0 Z "
          fill="#FBF8EE" transform="translate(511,360)"/>
    <path d="M0 0 C55.11 0 110.22 0 167 0 C167 0.33 167 0.66 167 1 C111.89 1 56.78 1 0 1 C0 0.67 0 0.34 0 0 Z "
          fill="#FBF8EE" transform="translate(182,560)"/>
    <path d="M0 0 C0.66 0.33 1.32 0.66 2 1 C4.00097518 1.12027472 6.0058621 1.17737258 8.01025391 1.20532227 C9.27141022 1.22526749 10.53256653 1.24521271 11.8319397 1.26576233 C13.21347937 1.28274665 14.59502034 1.29962546 15.9765625 1.31640625 C17.38618582 1.3369756 18.79580297 1.35797207 20.20541382 1.37937927 C23.91747035 1.43460195 27.62958257 1.48401031 31.34173584 1.53222656 C35.12891603 1.58244018 38.91601526 1.63812697 42.703125 1.69335938 C50.13534812 1.80094333 57.56763852 1.90238773 65 2 C65 2.33 65 2.66 65 3 C64.20042374 3.01030746 63.40084747 3.02061493 62.57704163 3.03123474 C55.05732704 3.12904082 47.53769807 3.23153065 40.01812077 3.33933926 C36.1518399 3.39460355 32.28555152 3.448029 28.41918945 3.49731445 C24.69089913 3.5449065 20.96270348 3.59724715 17.23452568 3.65294075 C15.80913067 3.67338778 14.38370968 3.69209691 12.95826912 3.70907402 C10.96829459 3.73306596 8.97840345 3.76370136 6.98852539 3.79467773 C5.28642662 3.81799416 5.28642662 3.81799416 3.54994202 3.84178162 C1.06584162 3.71350527 1.06584162 3.71350527 0 5 C-2.3756852 5.0883967 -4.72208674 5.11530305 -7.09765625 5.09765625 C-8.16094398 5.09553383 -8.16094398 5.09553383 -9.24571228 5.09336853 C-11.51801712 5.08775443 -13.79022475 5.07519963 -16.0625 5.0625 C-17.59960796 5.05748681 -19.13671745 5.05292359 -20.67382812 5.04882812 C-24.44925642 5.03778042 -28.22461171 5.02050641 -32 5 C-32 4.01 -32 3.02 -32 2 C-21.44 2 -10.88 2 0 2 C0 1.34 0 0.68 0 0 Z "
          fill="#DACFC4" transform="translate(593,335)"/>
    <path d="M0 0 C0.33 0 0.66 0 1 0 C1 51.48 1 102.96 1 156 C0.67 156 0.34 156 0 156 C0 104.52 0 53.04 0 0 Z "
          fill="#DBCFC6" transform="translate(717,366)"/>
    <path d="M0 0 C17.68510292 -0.17924091 35.32891902 0.37711386 53 1 C53 1.66 53 2.32 53 3 C35.84 3 18.68 3 1 3 C0.67 2.01 0.34 1.02 0 0 Z "
          fill="#A0847B" transform="translate(834,497)"/>
    <path d="M0 0 C0.99 0.33 1.98 0.66 3 1 C3 13.21 3 25.42 3 38 C2.01 37.34 1.02 36.68 0 36 C-0.2667616 33.23371085 -0.34804189 30.69380369 -0.29296875 27.9296875 C-0.28872391 27.13345978 -0.28447906 26.33723206 -0.28010559 25.51687622 C-0.26328834 22.96924271 -0.22563179 20.42239511 -0.1875 17.875 C-0.17245705 16.14975099 -0.15876796 14.42448961 -0.14648438 12.69921875 C-0.11337501 8.46584218 -0.06157285 4.23305441 0 0 Z "
          fill="#653934" transform="translate(507,513)"/>
    <path d="M0 0 C3.96 0 7.92 0 12 0 C12 0.33 12 0.66 12 1 C18.93 1.495 18.93 1.495 26 2 C26.495 3.98 26.495 3.98 27 6 C26.01 6 25.02 6 24 6 C24 5.34 24 4.68 24 4 C20.18751574 3.97112764 16.3750593 3.95324508 12.5625 3.9375 C11.47388672 3.92912109 10.38527344 3.92074219 9.26367188 3.91210938 C7.71196289 3.90727539 7.71196289 3.90727539 6.12890625 3.90234375 C5.17056885 3.89710693 4.21223145 3.89187012 3.22485352 3.88647461 C1.02714661 3.7494687 1.02714661 3.7494687 0 5 C-1.56172745 5.08685603 -3.12729344 5.10702219 -4.69140625 5.09765625 C-5.63564453 5.09443359 -6.57988281 5.09121094 -7.55273438 5.08789062 C-8.54595703 5.07951172 -9.53917969 5.07113281 -10.5625 5.0625 C-11.55958984 5.05798828 -12.55667969 5.05347656 -13.58398438 5.04882812 C-16.05604849 5.03700007 -18.52799518 5.02051849 -21 5 C-21 4.34 -21 3.68 -21 3 C-18.65147472 1.82573736 -17.26225935 1.88491827 -14.6484375 1.90234375 C-13.37226562 1.90717773 -13.37226562 1.90717773 -12.0703125 1.91210938 C-11.18085937 1.92048828 -10.29140625 1.92886719 -9.375 1.9375 C-8.4778125 1.94201172 -7.580625 1.94652344 -6.65625 1.95117188 C-4.43743352 1.96297409 -2.21874982 1.97943845 0 2 C0 1.34 0 0.68 0 0 Z "
          fill="#C7B6AB" transform="translate(681,335)"/>
    <path d="M0 0 C0.99 0.33 1.98 0.66 3 1 C2.979375 1.94875 2.95875 2.8975 2.9375 3.875 C2.77448174 6.90666283 2.77448174 6.90666283 4 9 C30.73 9 57.46 9 85 9 C85 9.66 85 10.32 85 11 C57.28 11 29.56 11 1 11 C0.67 7.37 0.34 3.74 0 0 Z "
          fill="#EFE9DF" transform="translate(771,500)"/>
    <path d="M0 0 C0.66 0 1.32 0 2 0 C2 35.31 2 70.62 2 107 C1.67 107 1.34 107 1 107 C0.505 54.035 0.505 54.035 0 0 Z "
          fill="#B29B90" transform="translate(831,389)"/>
    <path d="M0 0 C30.36 0 60.72 0 92 0 C92 0.33 92 0.66 92 1 C61.64 1 31.28 1 0 1 C0 0.67 0 0.34 0 0 Z " fill="#FBF8EE"
          transform="translate(923,474)"/>
    <path d="M0 0 C29.37 0 58.74 0 89 0 C89 0.33 89 0.66 89 1 C59.63 1 30.26 1 0 1 C0 0.67 0 0.34 0 0 Z " fill="#FBF8EE"
          transform="translate(897,508)"/>
    <path d="M0 0 C0.33 0 0.66 0 1 0 C1 26.4 1 52.8 1 80 C0.67 80 0.34 80 0 80 C0 53.6 0 27.2 0 0 Z " fill="#D5C8BF"
          transform="translate(338,346)"/>
    <path d="M0 0 C0.99 0.66 1.98 1.32 3 2 C3.328125 4.56640625 3.328125 4.56640625 3.25 7.5625 C3.23453125 8.55378906 3.2190625 9.54507812 3.203125 10.56640625 C3 13 3 13 2 14 C1.89955659 16.44904669 1.86125584 18.86374897 1.875 21.3125 C1.87113281 21.98990234 1.86726562 22.66730469 1.86328125 23.36523438 C1.86983877 26.7194055 1.96156849 29.79404876 3 33 C-0.51056197 30.15285131 -1.89669347 28.7975264 -2.48828125 24.23046875 C-2.45539031 22.88194037 -2.39624286 21.5338275 -2.3125 20.1875 C-2.28994141 19.49462891 -2.26738281 18.80175781 -2.24414062 18.08789062 C-2.18562661 16.39098427 -2.0959548 14.69520139 -2 13 C-1.34 13 -0.68 13 0 13 C-0.185625 12.05125 -0.37125 11.1025 -0.5625 10.125 C-1 7 -1 7 0 5 C-0.66 5 -1.32 5 -2 5 C-1.34 3.35 -0.68 1.7 0 0 Z "
          fill="#B2A39B" transform="translate(1021,475)"/>
    <path d="M0 0 C0 0.99 0 1.98 0 3 C-19.8 3 -39.6 3 -60 3 C-56.81593441 0.87728961 -55.94918641 0.73924062 -52.28833008 0.68115234 C-51.33336136 0.66128265 -50.37839264 0.64141296 -49.39448547 0.62094116 C-47.84763313 0.60361435 -47.84763313 0.60361435 -46.26953125 0.5859375 C-45.20514328 0.56657135 -44.14075531 0.5472052 -43.04411316 0.5272522 C-39.6336575 0.46742868 -36.22316559 0.42113229 -32.8125 0.375 C-30.53318835 0.33680919 -28.25389097 0.29775682 -25.97460938 0.2578125 C-17.31609062 0.11138176 -8.65992541 -0.02443582 0 0 Z "
          fill="#EDE7DD" transform="translate(645,509)"/>
    <path d="M0 0 C0.33 0 0.66 0 1 0 C1 18.48 1 36.96 1 56 C0.01 56 -0.98 56 -2 56 C-2.12547743 48.47135449 -2.12547743 48.47135449 -1.50672913 46.14703369 C-0.97023154 43.87386973 -0.84161574 41.8403255 -0.79467773 39.50683594 C-0.77473251 38.62622498 -0.75478729 37.74561401 -0.73423767 36.83831787 C-0.71752518 35.89651672 -0.70081268 34.95471558 -0.68359375 33.984375 C-0.66281265 33.01340881 -0.64203156 32.04244263 -0.62062073 31.04205322 C-0.55531138 27.94477315 -0.49632677 24.84740932 -0.4375 21.75 C-0.39429708 19.64842889 -0.35068222 17.5468662 -0.30664062 15.4453125 C-0.19964902 10.29696052 -0.0983291 5.14852442 0 0 Z "
          fill="#ECE5DA" transform="translate(584,403)"/>
    <path d="M0 0 C2.5 1.375 2.5 1.375 5 3 C5 3.66 5 4.32 5 5 C5.5775 5.2475 6.155 5.495 6.75 5.75 C9.3002997 7.16683317 11.01785701 8.87627537 13 11 C12.67 11.99 12.34 12.98 12 14 C10.35 14.33 8.7 14.66 7 15 C7 14.01 7 13.02 7 12 C4.9927092 8.9890638 4.16115776 8.36983503 1 7 C1.33 6.01 1.66 5.02 2 4 C1.01 4 0.02 4 -1 4 C-0.67 2.68 -0.34 1.36 0 0 Z "
          fill="#6A605C" transform="translate(361,546)"/>
    <path d="M0 0 C0.33 0 0.66 0 1 0 C1 21.45 1 42.9 1 65 C0.67 65 0.34 65 0 65 C0 43.55 0 22.1 0 0 Z " fill="#EFE9DF"
          transform="translate(904,358)"/>
    <path d="M0 0 C15.51 0 31.02 0 47 0 C47 0.66 47 1.32 47 2 C30.83 2.33 14.66 2.66 -2 3 C-1.34 2.67 -0.68 2.34 0 2 C0 1.34 0 0.68 0 0 Z "
          fill="#EDE6DC" transform="translate(777,384)"/>
    <path d="M0 0 C18.15 0 36.3 0 55 0 C55 0.33 55 0.66 55 1 C36.85 1 18.7 1 0 1 C0 0.67 0 0.34 0 0 Z " fill="#FBF8EE"
          transform="translate(973,389)"/>
    <path d="M0 0 C13.86 0 27.72 0 42 0 C42 0.33 42 0.66 42 1 C28.14 1 14.28 1 0 1 C0 0.67 0 0.34 0 0 Z " fill="#EDE9DF"
          transform="translate(616,335)"/>
    <path d="M0 0 C0.33 0 0.66 0 1 0 C1 12.87 1 25.74 1 39 C0.67 39 0.34 39 0 39 C0 26.13 0 13.26 0 0 Z " fill="#E3DAD1"
          transform="translate(338,469)"/>
    <path d="M0 0 C1.32 0.33 2.64 0.66 4 1 C4 1.66 4 2.32 4 3 C4.99 3 5.98 3 7 3 C9.80255323 5.9063515 10 6.78825048 10 11 C6.31353859 9.54144353 4.83856029 7.69770955 2.75 4.375 C1.96882813 3.14910156 1.96882813 3.14910156 1.171875 1.8984375 C0.78515625 1.27195312 0.3984375 0.64546875 0 0 Z "
          fill="#59504D" transform="translate(346,535)"/>
    <path d="M0 0 C11.88 0 23.76 0 36 0 C36 0.33 36 0.66 36 1 C24.12 1 12.24 1 0 1 C0 0.67 0 0.34 0 0 Z " fill="#F0EAE1"
          transform="translate(401,508)"/>
    <path d="M0 0 C6.6 0 13.2 0 20 0 C20 0.33 20 0.66 20 1 C13.56971459 2.32388229 7.5705166 3.24794402 1 3 C0.67 2.01 0.34 1.02 0 0 Z "
          fill="#95776D" transform="translate(834,497)"/>
    <path d="M0 0 C8.25 0 16.5 0 25 0 C25.33 1.32 25.66 2.64 26 4 C25.01 4 24.02 4 23 4 C23 3.34 23 2.68 23 2 C11.615 1.505 11.615 1.505 0 1 C0 0.67 0 0.34 0 0 Z "
          fill="#EAE2D8" transform="translate(682,337)"/>
    <path d="M0 0 C0.99 -0.185625 1.98 -0.37125 3 -0.5625 C6 -1 6 -1 9 1 C5.16275828 1.90413673 1.62497726 2.10576898 -2.3125 2.0625 C-3.38113281 2.05347656 -4.44976562 2.04445313 -5.55078125 2.03515625 C-6.35902344 2.02355469 -7.16726563 2.01195312 -8 2 C-8 1.34 -8 0.68 -8 0 C-4.71303767 -0.79953138 -3.28976808 -1.09658936 0 0 Z "
          fill="#6F453F" transform="translate(357,558)"/>
    <path d="M0 0 C10.56 0 21.12 0 32 0 C32 0.33 32 0.66 32 1 C21.44 1 10.88 1 0 1 C0 0.67 0 0.34 0 0 Z " fill="#F4F0E6"
          transform="translate(858,508)"/>
    <path d="M0 0 C0.66 0.33 1.32 0.66 2 1 C-0.97 3.97 -3.94 6.94 -7 10 C-8.32 9.34 -9.64 8.68 -11 8 C-5.25 3 -5.25 3 -3 3 C-1.37485532 1.54166642 -1.37485532 1.54166642 0 0 Z "
          fill="#95807A" transform="translate(618,436)"/>
    <path d="M0 0 C0.66 0 1.32 0 2 0 C3.72264494 3.29549466 5.29445932 6.33118845 6 10 C5.01 10.495 5.01 10.495 4 11 C3.67 9.68 3.34 8.36 3 7 C2.34 7 1.68 7 1 7 C0.34 5.02 -0.32 3.04 -1 1 C-0.67 0.67 -0.34 0.34 0 0 Z "
          fill="#6F645F" transform="translate(908,460)"/>
    <path d="M0 0 C0.33 0.66 0.66 1.32 1 2 C0.071875 2.2475 -0.85625 2.495 -1.8125 2.75 C-5.26139964 4.10250966 -6.06860919 4.96495729 -8 8 C-9.5625 9.75 -9.5625 9.75 -11 11 C-11.66 11 -12.32 11 -13 11 C-13 8 -13 8 -11.42578125 6.2109375 C-10.37970703 5.30214844 -10.37970703 5.30214844 -9.3125 4.375 C-8.62800781 3.76398438 -7.94351562 3.15296875 -7.23828125 2.5234375 C-4.78534851 0.85390213 -2.91861931 0.37824488 0 0 Z "
          fill="#653332" transform="translate(359,449)"/>
    <path d="M0 0 C9.9 0 19.8 0 30 0 C30 0.33 30 0.66 30 1 C20.1 1 10.2 1 0 1 C0 0.67 0 0.34 0 0 Z " fill="#EAE3D8"
          transform="translate(653,417)"/>
    <path d="M0 0 C0 3 0 3 -1 6 C-3.66083969 7.99396257 -6.61242325 10 -10 10 C-9.8125 8.125 -9.8125 8.125 -9 6 C-7.3523962 5.28752268 -5.68236471 4.62599617 -4 4 C-1.72808584 1.97959252 -1.72808584 1.97959252 0 0 Z "
          fill="#8F6A66" transform="translate(443,403)"/>
    <path d="M0 0 C0.99 0 1.98 0 3 0 C3 3.96 3 7.92 3 12 C0 9 0 9 -0.29296875 6.73828125 C-0.25816406 5.93777344 -0.22335937 5.13726562 -0.1875 4.3125 C-0.16042969 3.50425781 -0.13335938 2.69601562 -0.10546875 1.86328125 C-0.07066406 1.24839844 -0.03585937 0.63351562 0 0 Z "
          fill="#E3DACF" transform="translate(771,386)"/>
    <path d="M0 0 C0 0.66 0 1.32 0 2 C-7.26 1.67 -14.52 1.34 -22 1 C-22 0.67 -22 0.34 -22 0 C-19.27119539 -0.19555932 -16.54228931 -0.38170447 -13.8125 -0.5625 C-13.04357422 -0.61857422 -12.27464844 -0.67464844 -11.48242188 -0.73242188 C-7.45938647 -0.99141557 -3.93927628 -1.06573607 0 0 Z "
          fill="#420405" transform="translate(705,339)"/>
    <path d="M0 0 C0.33 0 0.66 0 1 0 C1 7.59 1 15.18 1 23 C0.67 23 0.34 23 0 23 C0 15.41 0 7.82 0 0 Z " fill="#FBF8EE"
          transform="translate(904,424)"/>
    <path d="M0 0 C6.27 0 12.54 0 19 0 C19 0.33 19 0.66 19 1 C12.73 1 6.46 1 0 1 C0 0.67 0 0.34 0 0 Z " fill="#F5F1E7"
          transform="translate(596,335)"/>
    <path d="M0 0 C5.28 0 10.56 0 16 0 C16 0.33 16 0.66 16 1 C10.72 1 5.44 1 0 1 C0 0.67 0 0.34 0 0 Z " fill="#E8E0D6"
          transform="translate(781,508)"/>
    <path d="M0 0 C0.33 0 0.66 0 1 0 C1 4.62 1 9.24 1 14 C0.67 14 0.34 14 0 14 C0 9.38 0 4.76 0 0 Z " fill="#DACEC5"
          transform="translate(643,485)"/>
    <path d="M0 0 C0.33 0 0.66 0 1 0 C1 4.29 1 8.58 1 13 C0.67 13 0.34 13 0 13 C0 8.71 0 4.42 0 0 Z " fill="#AA8F89"
          transform="translate(717,524)"/>
    <path d="M0 0 C0.33 0 0.66 0 1 0 C1 3.96 1 7.92 1 12 C0.67 12 0.34 12 0 12 C0 8.04 0 4.08 0 0 Z " fill="#E2D8CE"
          transform="translate(643,472)"/>
    <path d="M0 0 C0.99 0.33 1.98 0.66 3 1 C2.34 1 1.68 1 1 1 C0.67 1.99 0.34 2.98 0 4 C-1.32 3.67 -2.64 3.34 -4 3 C-3.01 2.67 -2.02 2.34 -1 2 C-0.67 1.34 -0.34 0.68 0 0 Z "
          fill="#501918" transform="translate(634,417)"/>
    <path d="M0 0 C-1.98 0.66 -3.96 1.32 -6 2 C-6 1.34 -6 0.68 -6 0 C-2.25 -1.125 -2.25 -1.125 0 0 Z " fill="#CFC0B6"
          transform="translate(386,421)"/>
    <path d="M0 0 C0.33 0 0.66 0 1 0 C1 2.97 1 5.94 1 9 C0.67 9 0.34 9 0 9 C0 6.03 0 3.06 0 0 Z " fill="#754D47"
          transform="translate(717,356)"/>
    <path d="M0 0 C0.66 0.33 1.32 0.66 2 1 C1.34 1.66 0.68 2.32 0 3 C-2.125 2.625 -2.125 2.625 -4 2 C-2.125 0.9375 -2.125 0.9375 0 0 Z "
          fill="#E3DACF" transform="translate(692,555)"/>
    <path d="M0 0 C2.64 0 5.28 0 8 0 C8 0.33 8 0.66 8 1 C5.36 1 2.72 1 0 1 C0 0.67 0 0.34 0 0 Z " fill="#FBF8EE"
          transform="translate(798,508)"/>
    <path d="M0 0 C0.33 0 0.66 0 1 0 C1 1.65 1 3.3 1 5 C0.01 5.495 0.01 5.495 -1 6 C-0.67 4.02 -0.34 2.04 0 0 Z "
          fill="#D0C1B8" transform="translate(643,500)"/>
    <path d="M0 0 C0.66 0.33 1.32 0.66 2 1 C1.01 1.99 0.02 2.98 -1 4 C-1.33 3.34 -1.66 2.68 -2 2 C-1.34 2 -0.68 2 0 2 C0 1.34 0 0.68 0 0 Z "
          fill="#460A0A" transform="translate(596,453)"/>
    <path d="M0 0 C0.66 0.33 1.32 0.66 2 1 C1.34 1.66 0.68 2.32 0 3 C-0.99 2.67 -1.98 2.34 -3 2 C-2.01 1.34 -1.02 0.68 0 0 Z "
          fill="#460A0A" transform="translate(390,431)"/>
    <path d="M0 0 C2.31 0 4.62 0 7 0 C7 0.33 7 0.66 7 1 C4.69 1 2.38 1 0 1 C0 0.67 0 0.34 0 0 Z " fill="#BCA89E"
          transform="translate(698,335)"/>
    <path d="M0 0 C0.99 0.33 1.98 0.66 3 1 C1.35 1.33 -0.3 1.66 -2 2 C-1.34 1.34 -0.68 0.68 0 0 Z " fill="#FBF8EE"
          transform="translate(1071,554)"/>
    <path d="M0 0 C0.99 0.33 1.98 0.66 3 1 C1.35 1.33 -0.3 1.66 -2 2 C-1.34 1.34 -0.68 0.68 0 0 Z " fill="#E4DBD0"
          transform="translate(439,465)"/>
    <path d="M0 0 C1.98 0.495 1.98 0.495 4 1 C2.35 1.33 0.7 1.66 -1 2 C-0.67 1.34 -0.34 0.68 0 0 Z " fill="#C1AEA4"
          transform="translate(375,424)"/>
    <path d="M0 0 C0.33 0 0.66 0 1 0 C1 1.98 1 3.96 1 6 C0.67 6 0.34 6 0 6 C0 4.02 0 2.04 0 0 Z " fill="#A68982"
          transform="translate(453,386)"/>
    <path d="M0 0 C0 0.99 0 1.98 0 3 C-0.99 3.495 -0.99 3.495 -2 4 C-1.34 2.68 -0.68 1.36 0 0 Z " fill="#E4DBD0"
          transform="translate(1063,377)"/>
    <path d="M0 0 C0.33 0 0.66 0 1 0 C1 1.98 1 3.96 1 6 C0.67 6 0.34 6 0 6 C0 4.02 0 2.04 0 0 Z " fill="#DCCFC7"
          transform="translate(178,310)"/>
    <path d="M0 0 C0.99 0.33 1.98 0.66 3 1 C1.68 1.33 0.36 1.66 -1 2 C-0.67 1.34 -0.34 0.68 0 0 Z " fill="#D4C8BC"
          transform="translate(417,476)"/>
    <path d="M0 0 C1.65 0 3.3 0 5 0 C5 0.33 5 0.66 5 1 C3.35 1 1.7 1 0 1 C0 0.67 0 0.34 0 0 Z " fill="#FBF8EE"
          transform="translate(595,463)"/>
    <path d="M0 0 C0.33 0 0.66 0 1 0 C1 1.65 1 3.3 1 5 C0.67 5 0.34 5 0 5 C0 3.35 0 1.7 0 0 Z " fill="#A1847D"
          transform="translate(338,427)"/>
    <path d="M0 0 C0 0.99 0 1.98 0 3 C-0.66 2.67 -1.32 2.34 -2 2 C-1.34 1.34 -0.68 0.68 0 0 Z " fill="#E8E1D6"
          transform="translate(1066,374)"/>
    <path d="M0 0 C0 0.99 0 1.98 0 3 C-0.66 2.67 -1.32 2.34 -2 2 C-1.34 1.34 -0.68 0.68 0 0 Z " fill="#FBF8EE"
          transform="translate(1074,365)"/>
    <path d="M0 0 C0.33 0 0.66 0 1 0 C1 1.65 1 3.3 1 5 C0.67 5 0.34 5 0 5 C0 3.35 0 1.7 0 0 Z " fill="#FBF8EE"
          transform="translate(237,346)"/>
    <path d="M0 0 C1.65 0 3.3 0 5 0 C5 0.33 5 0.66 5 1 C3.35 1 1.7 1 0 1 C0 0.67 0 0.34 0 0 Z " fill="#B09690"
          transform="translate(1085,335)"/>
    <path d="M0 0 C4 1 4 1 4 1 Z " fill="#A58C81" transform="translate(639,508)"/>
    <path d="M0 0 C0.66 0.33 1.32 0.66 2 1 C1.01 1 0.02 1 -1 1 C-0.67 0.67 -0.34 0.34 0 0 Z " fill="#D8CDC1"
          transform="translate(433,468)"/>
    <path d="M0 0 C0.33 0.99 0.66 1.98 1 3 C0.34 2.67 -0.32 2.34 -1 2 C-0.67 1.34 -0.34 0.68 0 0 Z " fill="#CDBFB2"
          transform="translate(338,464)"/>
    <path d="M0 0 C0 3 0 3 0 3 Z " fill="#410304" transform="translate(376,439)"/>
    <path d="M0 0 C0 3 0 3 0 3 Z " fill="#B09890" transform="translate(338,434)"/>
    <path d="M0 0 C0 3 0 3 0 3 Z " fill="#FBF8EE" transform="translate(1058,383)"/>
    <path d="M0 0 C0.66 0.33 1.32 0.66 2 1 C1.01 1 0.02 1 -1 1 C-0.67 0.67 -0.34 0.34 0 0 Z " fill="#FBF8EE"
          transform="translate(1082,356)"/>
    <path d="M0 0 C0.66 0.33 1.32 0.66 2 1 C1.01 1 0.02 1 -1 1 C-0.67 0.67 -0.34 0.34 0 0 Z " fill="#FBF8EE"
          transform="translate(689,356)"/>
    <path d="M0 0 C4 1 4 1 4 1 Z " fill="#410304" transform="translate(913,340)"/>
    <path d="M0 0 C0.33 0.66 0.66 1.32 1 2 C0.34 1.67 -0.32 1.34 -1 1 C-0.67 0.67 -0.34 0.34 0 0 Z " fill="#FBF8EE"
          transform="translate(510,558)"/>
    <path d="M0 0 C3 1 3 1 3 1 Z " fill="#FBF8EE" transform="translate(542,557)"/>
    <path d="M0 0 C0.66 0 1.32 0 2 0 C1.67 0.66 1.34 1.32 1 2 C0.67 1.34 0.34 0.68 0 0 Z " fill="#FBF8EE"
          transform="translate(389,557)"/>
    <path d="M0 0 C3 1 3 1 3 1 Z " fill="#FBF8EE" transform="translate(827,508)"/>
    <path d="" fill="#7F5452" transform="translate(0,0)"/>
    <path d="M0 0 C3 1 3 1 3 1 Z " fill="#FBF8EE" transform="translate(406,482)"/>
    <path d="M0 0 C0.33 0.66 0.66 1.32 1 2 C0.34 1.67 -0.32 1.34 -1 1 C-0.67 0.67 -0.34 0.34 0 0 Z " fill="#FBF8EE"
          transform="translate(421,474)"/>
    <path d="M0 0 C0.66 0 1.32 0 2 0 C1.67 0.66 1.34 1.32 1 2 C0.67 1.34 0.34 0.68 0 0 Z " fill="#764E46"
          transform="translate(448,460)"/>
    <path d="" fill="#4D1413" transform="translate(0,0)"/>
    <path d="M0 0 C3 1 3 1 3 1 Z " fill="#410304" transform="translate(614,436)"/>
    <path d="M0 0 C3 1 3 1 3 1 Z " fill="#FBF8EE" transform="translate(354,436)"/>
    <path d="M0 0 C0.33 0.66 0.66 1.32 1 2 C0.34 1.67 -0.32 1.34 -1 1 C-0.67 0.67 -0.34 0.34 0 0 Z " fill="#FBF8EE"
          transform="translate(368,428)"/>
    <path d="M0 0 C3 1 3 1 3 1 Z " fill="#C9B8AF" transform="translate(688,417)"/>
    <path d="M0 0 C0.33 0.66 0.66 1.32 1 2 C0.34 1.67 -0.32 1.34 -1 1 C-0.67 0.67 -0.34 0.34 0 0 Z " fill="#764E46"
          transform="translate(692,415)"/>
    <path d="M0 0 C0.99 0.495 0.99 0.495 2 1 C1.01 1.495 1.01 1.495 0 2 C0 1.34 0 0.68 0 0 Z " fill="#FBF8EE"
          transform="translate(1054,387)"/>
    <path d="M0 0 C3 1 3 1 3 1 Z " fill="#FBF8EE" transform="translate(657,384)"/>
    <path d="M0 0 C0.33 0.66 0.66 1.32 1 2 C0.34 1.67 -0.32 1.34 -1 1 C-0.67 0.67 -0.34 0.34 0 0 Z " fill="#EBE5DA"
          transform="translate(1068,372)"/>
    <path d="M0 0 C0.33 0.66 0.66 1.32 1 2 C0.34 1.67 -0.32 1.34 -1 1 C-0.67 0.67 -0.34 0.34 0 0 Z " fill="#FBF8EE"
          transform="translate(1076,363)"/>
    <path d="M0 0 C0.99 0.495 0.99 0.495 2 1 C1.01 1.495 1.01 1.495 0 2 C0 1.34 0 0.68 0 0 Z " fill="#FBF8EE"
          transform="translate(1092,345)"/>
    <path d="" fill="#FBF8EE" transform="translate(0,0)"/>
    <path d="M0 0 C0.99 0.495 0.99 0.495 2 1 C1.01 1.495 1.01 1.495 0 2 C0 1.34 0 0.68 0 0 Z " fill="#410304"
          transform="translate(917,338)"/>
    <path d="M0 0 C0.33 0.66 0.66 1.32 1 2 C0.34 1.67 -0.32 1.34 -1 1 C-0.67 0.67 -0.34 0.34 0 0 Z " fill="#410304"
          transform="translate(733,336)"/>
    <path d="M0 0 C2 1 2 1 2 1 Z " fill="#FBF8EE" transform="translate(726,554)"/>
    <path d="" fill="#FBF8EE" transform="translate(0,0)"/>
    <path d="M0 0 C2 1 2 1 2 1 Z " fill="#CDBFB2" transform="translate(1011,507)"/>
    <path d="" fill="#987A6E" transform="translate(0,0)"/>
    <path d="" fill="#CDBFB2" transform="translate(0,0)"/>
    <path d="" fill="#FBF8EE" transform="translate(0,0)"/>
    <path d="M0 0 C2 1 2 1 2 1 Z " fill="#FBF8EE" transform="translate(398,486)"/>
    <path d="M0 0 C2 1 2 1 2 1 Z " fill="#FBF8EE" transform="translate(426,472)"/>
    <path d="" fill="#FBF8EE" transform="translate(0,0)"/>
    <path d="M0 0 C2 1 2 1 2 1 Z " fill="#FBF8EE" transform="translate(435,467)"/>
    <path d="M0 0 C2 1 2 1 2 1 Z " fill="#653833" transform="translate(642,465)"/>
    <path d="M0 0 C2 1 2 1 2 1 Z " fill="#FBF8EE" transform="translate(442,464)"/>
    <path d="M0 0 C2 1 2 1 2 1 Z " fill="#FBF8EE" transform="translate(352,437)"/>
    <path d="M0 0 C2 1 2 1 2 1 Z " fill="#FBF8EE" transform="translate(357,435)"/>
    <path d="M0 0 C2 1 2 1 2 1 Z " fill="#FBF8EE" transform="translate(359,434)"/>
    <path d="" fill="#321C19" transform="translate(0,0)"/>
    <path d="" fill="#FBF8EE" transform="translate(0,0)"/>
    <path d="M0 0 C2 1 2 1 2 1 Z " fill="#9E7D79" transform="translate(963,423)"/>
    <path d="" fill="#FBF8EE" transform="translate(0,0)"/>
    <path d="M0 0 C2 1 2 1 2 1 Z " fill="#FBF8EE" transform="translate(1049,389)"/>
    <path d="" fill="#FBF8EE" transform="translate(0,0)"/>
    <path d="" fill="#7E5950" transform="translate(0,0)"/>
    <path d="" fill="#E4DBD0" transform="translate(0,0)"/>
    <path d="M0 0 C2 1 2 1 2 1 Z " fill="#FBF8EE" transform="translate(679,365)"/>
    <path d="" fill="#FBF8EE" transform="translate(0,0)"/>
    <path d="" fill="#FBF8EE" transform="translate(0,0)"/>
    <path d="M0 0 C2 1 2 1 2 1 Z " fill="#410304" transform="translate(724,340)"/>
    <path d="M0 0 C2 1 2 1 2 1 Z " fill="#FBF8EE" transform="translate(555,335)"/>
    <path d="" fill="#FBF8EE" transform="translate(0,0)"/>
    <path d="" fill="#FBF8EE" transform="translate(0,0)"/>
    <path d="" fill="#FBF8EE" transform="translate(0,0)"/>
    <path d="" fill="#FBF8EE" transform="translate(0,0)"/>
    <path d="" fill="#FBF8EE" transform="translate(0,0)"/>
    <path d="" fill="#FBF8EE" transform="translate(0,0)"/>
    <path d="" fill="#FBF8EE" transform="translate(0,0)"/>
    <path d="" fill="#FBF8EE" transform="translate(0,0)"/>
    <path d="" fill="#000000" transform="translate(0,0)"/>
    <path d="" fill="#CDBFB2" transform="translate(0,0)"/>
    <path d="" fill="#CDBFB2" transform="translate(0,0)"/>
    <path d="" fill="#410304" transform="translate(0,0)"/>
    <path d="" fill="#FBF8EE" transform="translate(0,0)"/>
    <path d="" fill="#CDBFB2" transform="translate(0,0)"/>
    <path d="" fill="#FBF8EE" transform="translate(0,0)"/>
    <path d="" fill="#FBF8EE" transform="translate(0,0)"/>
    <path d="" fill="#000000" transform="translate(0,0)"/>
    <path d="" fill="#FBF8EE" transform="translate(0,0)"/>
    <path d="" fill="#653833" transform="translate(0,0)"/>
    <path d="" fill="#FBF8EE" transform="translate(0,0)"/>
    <path d="" fill="#FBF8EE" transform="translate(0,0)"/>
    <path d="" fill="#FBF8EE" transform="translate(0,0)"/>
    <path d="" fill="#FBF8EE" transform="translate(0,0)"/>
    <path d="" fill="#FBF8EE" transform="translate(0,0)"/>
    <path d="" fill="#987A6E" transform="translate(0,0)"/>
    <path d="" fill="#410304" transform="translate(0,0)"/>
    <path d="" fill="#000000" transform="translate(0,0)"/>
    <path d="" fill="#FBF8EE" transform="translate(0,0)"/>
    <path d="" fill="#653833" transform="translate(0,0)"/>
    <path d="" fill="#CDBFB2" transform="translate(0,0)"/>
    <path d="" fill="#FBF8EE" transform="translate(0,0)"/>
    <path d="" fill="#FBF8EE" transform="translate(0,0)"/>
    <path d="" fill="#000000" transform="translate(0,0)"/>
    <path d="" fill="#410304" transform="translate(0,0)"/>
    <path d="" fill="#987A6E" transform="translate(0,0)"/>
    <path d="" fill="#FBF8EE" transform="translate(0,0)"/>
    <path d="" fill="#FBF8EE" transform="translate(0,0)"/>
    <path d="" fill="#FBF8EE" transform="translate(0,0)"/>
    <path d="" fill="#FBF8EE" transform="translate(0,0)"/>
    <path d="" fill="#987A6E" transform="translate(0,0)"/>
    <path d="" fill="#FBF8EE" transform="translate(0,0)"/>
    <path d="" fill="#FBF8EE" transform="translate(0,0)"/>
    <path d="" fill="#FBF8EE" transform="translate(0,0)"/>
    <path d="" fill="#FBF8EE" transform="translate(0,0)"/>
    <path d="" fill="#FBF8EE" transform="translate(0,0)"/>
    <path d="" fill="#FBF8EE" transform="translate(0,0)"/>
    <path d="" fill="#FBF8EE" transform="translate(0,0)"/>
    <path d="" fill="#FBF8EE" transform="translate(0,0)"/>
    <path d="" fill="#FBF8EE" transform="translate(0,0)"/>
    <path d="" fill="#FBF8EE" transform="translate(0,0)"/>
    <path d="" fill="#FBF8EE" transform="translate(0,0)"/>
    <path d="" fill="#FBF8EE" transform="translate(0,0)"/>
    <path d="" fill="#FBF8EE" transform="translate(0,0)"/>
    <path d="" fill="#000000" transform="translate(0,0)"/>
    <path d="" fill="#000000" transform="translate(0,0)"/>
    <path d="" fill="#FBF8EE" transform="translate(0,0)"/>
    <path d="" fill="#410304" transform="translate(0,0)"/>
    <path d="" fill="#FBF8EE" transform="translate(0,0)"/>
    <path d="" fill="#FBF8EE" transform="translate(0,0)"/>
    <path d="" fill="#FBF8EE" transform="translate(0,0)"/>
    <path d="" fill="#410304" transform="translate(0,0)"/>
    <path d="" fill="#653833" transform="translate(0,0)"/>
    <path d="" fill="#410304" transform="translate(0,0)"/>
    <path d="" fill="#410304" transform="translate(0,0)"/>
    <path d="" fill="#410304" transform="translate(0,0)"/>
    <path d="" fill="#FBF8EE" transform="translate(0,0)"/>
    <path d="" fill="#FBF8EE" transform="translate(0,0)"/>
    <path d="" fill="#410304" transform="translate(0,0)"/>
    <path d="" fill="#410304" transform="translate(0,0)"/>
    <path d="" fill="#000000" transform="translate(0,0)"/>
</svg>
